<?xml version="1.0" standalone="no"?>
<!DOCTYPE svg PUBLIC "-//W3C//DTD SVG 20010904//EN"
 "http://www.w3.org/TR/2001/REC-SVG-20010904/DTD/svg10.dtd">
<svg version="1.0" xmlns="http://www.w3.org/2000/svg"
 width="900.000000pt" height="600.000000pt" viewBox="0 0 900.000000 600.000000"
 preserveAspectRatio="xMidYMid meet">

<g transform="translate(0.000000,600.000000) scale(0.100000,-0.100000)"
fill="#000000" stroke="none">
<path d="M3864 4929 c-12 -13 -17 -35 -16 -69 2 -84 -6 -88 -195 -96 l-163 -7
-5 -31 c-3 -17 -6 -58 -8 -91 l-2 -60 -81 -3 -82 -3 -6 -37 c-3 -20 -6 -59 -6
-85 0 -57 -14 -66 -98 -60 -38 3 -61 -1 -78 -12 -22 -14 -24 -23 -24 -85 0
-38 -3 -71 -7 -73 -5 -3 -36 -8 -70 -11 -90 -9 -89 -9 -96 -83 -8 -85 -22 -99
-98 -105 -32 -2 -64 -9 -69 -14 -5 -5 -13 -74 -16 -152 -9 -181 -15 -192 -109
-192 -38 0 -67 -5 -73 -12 -7 -9 -10 -220 -10 -630 0 -339 -3 -622 -6 -627
-12 -19 35 -33 115 -34 43 -1 80 -6 83 -12 2 -5 0 -71 -4 -145 -4 -89 -3 -147
4 -170 11 -34 12 -35 76 -40 36 -3 76 -11 89 -19 22 -12 23 -18 18 -73 -7 -82
9 -98 98 -98 61 0 65 -1 71 -26 4 -14 4 -50 1 -80 -7 -67 -2 -70 113 -77 47
-3 86 -6 88 -6 2 -1 2 -37 1 -82 -4 -93 2 -100 71 -96 25 2 59 1 75 -3 30 -6
30 -6 35 -90 l5 -85 180 -5 180 -5 3 -84 c2 -64 7 -87 19 -96 13 -9 172 -12
647 -11 l631 2 2 25 c0 13 1 57 2 97 l1 73 170 -2 c128 -1 174 2 186 12 12 10
15 28 12 86 -4 85 -5 83 92 83 83 0 94 10 96 93 2 76 15 87 100 87 37 0 66 5
70 12 4 6 9 45 12 87 3 53 9 80 20 88 9 8 45 13 89 13 l72 0 3 83 3 82 45 2
c25 2 68 5 97 9 l52 5 -6 165 c-7 200 -6 204 93 204 86 0 88 4 84 200 -1 85
-2 175 -2 200 1 25 1 115 0 200 0 85 0 175 0 200 5 205 -3 473 -14 492 -3 4
-36 8 -73 8 -67 0 -69 1 -81 30 -9 22 -11 70 -8 166 4 94 2 137 -6 142 -6 3
-46 9 -88 13 -43 3 -81 9 -85 13 -4 4 -6 41 -4 82 3 97 -3 104 -89 103 -38 -1
-73 2 -78 5 -10 6 -20 50 -29 121 -2 21 -7 43 -9 47 -3 4 -27 8 -54 8 -82 0
-97 10 -110 77 -6 32 -13 68 -15 80 -5 20 -12 22 -88 25 l-82 3 -6 82 c-9 120
-4 117 -186 110 -84 -4 -159 -4 -168 -1 -12 5 -15 23 -15 84 0 52 -4 81 -12
86 -7 5 -293 9 -635 10 -599 2 -623 1 -639 -17z m526 -179 c86 8 367 10 538 5
l212 -7 0 -78 c0 -56 4 -83 15 -93 11 -12 48 -15 172 -16 111 -1 160 -5 165
-14 4 -7 8 -42 8 -78 0 -42 5 -71 13 -77 7 -6 51 -12 97 -14 l85 -3 1 -60 c0
-87 12 -102 81 -110 32 -3 65 -7 73 -8 11 -2 16 -22 20 -84 3 -46 10 -87 15
-92 6 -6 44 -13 85 -16 41 -4 77 -9 79 -11 3 -3 7 -77 8 -166 3 -113 7 -165
16 -170 7 -4 49 -8 95 -8 45 0 82 -3 82 -7 0 -5 0 -291 0 -638 l1 -629 -23 -9
c-13 -5 -49 -7 -81 -4 -86 8 -87 6 -87 -183 0 -189 0 -190 -94 -190 -35 0 -67
-5 -74 -12 -7 -7 -12 -39 -12 -74 0 -38 -5 -66 -13 -72 -7 -6 -45 -12 -84 -13
-85 -2 -84 -1 -92 -114 l-6 -80 -82 0 c-45 0 -85 -4 -90 -8 -4 -5 -6 -34 -5
-66 2 -31 -2 -69 -7 -84 l-11 -27 -169 0 -170 0 -7 -35 c-3 -19 -4 -54 -3 -78
2 -25 -1 -49 -7 -55 -8 -7 -221 -12 -645 -14 l-634 -3 0 85 0 85 -178 3 c-97
1 -177 6 -177 10 -1 30 -12 150 -15 160 -3 8 -30 12 -89 12 -99 0 -94 -6 -98
120 l-3 75 -80 3 c-99 3 -105 10 -105 108 0 80 -4 85 -59 73 -43 -10 -97 -1
-113 19 -9 10 -15 69 -18 186 l-5 171 -67 0 c-48 0 -72 5 -83 16 -14 13 -16
93 -22 627 -4 484 -3 615 7 627 9 11 33 15 94 15 l81 0 0 163 c0 201 0 202 95
194 36 -2 71 -3 78 0 8 3 12 34 12 104 l0 99 95 0 c107 0 97 -9 96 90 -2 80 4
85 101 86 l82 0 9 40 c4 21 6 58 3 81 -4 35 -1 45 14 53 10 5 89 10 174 10
180 0 176 -2 176 98 0 39 5 64 14 71 9 8 44 11 90 10 42 -1 80 2 84 6 4 4 79
4 167 1 88 -4 167 -6 175 -6z"/>
<path d="M4737 4376 c-8 -9 -22 -16 -29 -16 -10 0 -9 3 2 10 10 6 -98 10 -313
10 -214 0 -326 -3 -322 -10 3 -5 0 -7 -9 -4 -19 7 -28 -22 -25 -91 2 -46 5
-55 21 -55 11 0 16 5 13 10 -3 6 -1 10 4 10 6 0 11 -4 11 -10 0 -5 16 -10 36
-10 19 0 33 3 31 8 -3 4 104 3 236 -1 462 -15 545 -14 550 5 5 18 -6 135 -14
142 -10 9 -159 11 -159 1 0 -5 -4 -4 -9 3 -7 11 -11 11 -24 -2z"/>
<path d="M3844 4202 c3 -5 -30 -7 -74 -5 -91 5 -87 10 -92 -108 l-3 -67 50 -6
c90 -11 270 -7 283 6 8 8 12 45 12 100 l0 87 -61 -4 c-33 -3 -65 -7 -69 -10
-5 -3 -11 -1 -15 5 -3 5 -13 10 -21 10 -8 0 -13 -4 -10 -8z"/>
<path d="M4955 4200 c-3 -5 3 -13 12 -19 11 -6 13 -11 5 -11 -16 0 -14 -110 2
-110 6 0 4 -4 -4 -10 -12 -8 -12 -10 2 -15 29 -11 347 -11 351 0 2 6 2 24 0
40 -3 17 -4 45 -4 64 0 72 0 72 -189 71 -94 -1 -172 -6 -175 -10z m62 -156
c-3 -3 -12 -4 -19 -1 -8 3 -5 6 6 6 11 1 17 -2 13 -5z"/>
<path d="M3520 4000 c0 -5 -8 -6 -17 -3 -16 6 -17 5 -3 -12 9 -11 10 -16 3
-11 -7 4 -13 2 -13 -3 0 -6 5 -11 11 -11 5 0 8 -4 4 -9 -3 -5 -1 -12 5 -16 5
-3 10 -12 10 -18 0 -7 -4 -6 -10 3 -7 11 -10 5 -10 -22 0 -21 1 -41 3 -45 1
-5 27 -9 57 -9 30 -1 60 -3 65 -4 33 -7 41 1 43 45 1 34 -2 44 -11 39 -9 -6
-8 -3 1 8 9 11 10 18 2 23 -5 3 -8 16 -5 28 6 21 2 22 -65 24 -39 1 -70 -2
-70 -7z m97 -20 c1 -11 -2 -22 -6 -24 -6 -4 -7 26 -2 42 3 8 7 -1 8 -18z"/>
<path d="M5350 3990 c-23 -23 -28 -97 -9 -132 9 -17 19 -19 72 -16 34 1 67 7
73 13 6 6 14 40 18 77 7 76 6 78 -80 78 -41 0 -59 -5 -74 -20z"/>
<path d="M3340 3818 c0 -5 -6 -7 -12 -5 -10 1 -14 -39 -16 -168 -3 -203 -1
-198 -120 -199 l-77 -1 -3 -434 c-2 -374 -1 -436 12 -450 17 -19 146 -29 146
-12 0 6 10 0 23 -12 18 -17 21 -27 15 -46 -5 -13 -6 -54 -3 -90 3 -36 5 -98 5
-137 -1 -52 3 -74 15 -84 8 -7 15 -9 15 -6 0 4 8 2 18 -3 10 -5 44 -11 74 -12
42 -2 55 -6 51 -16 -5 -11 8 -18 29 -14 4 0 5 -6 2 -13 -3 -8 -12 -12 -20 -9
-10 4 -12 0 -8 -12 4 -9 7 -26 8 -38 1 -13 7 -21 16 -19 10 2 11 0 2 -10 -20
-25 1 -39 54 -34 27 2 57 4 68 5 12 1 16 6 12 17 -3 8 -2 13 3 10 5 -3 11 1
14 8 3 8 1 17 -6 20 -9 3 -9 5 1 5 6 1 12 8 12 17 0 8 -4 13 -9 10 -4 -3 -6 6
-3 19 6 35 -16 51 -78 53 -30 2 -67 5 -81 8 l-26 5 -2 157 c-1 87 -4 166 -6
177 -2 11 -4 23 -4 28 -2 15 -85 7 -105 -10 -20 -17 -20 -17 -6 1 14 18 14 19
-6 8 -44 -23 -44 -21 -44 462 0 395 2 459 15 472 8 9 15 11 15 6 0 -5 23 -10
51 -11 29 -1 55 -4 59 -6 21 -13 28 32 29 174 0 107 -4 160 -12 170 -10 12 -9
13 3 6 10 -5 12 -5 5 3 -12 12 -125 21 -125 10z m10 -22 c-7 -7 -13 -7 -20 0
-6 6 -3 10 10 10 13 0 16 -4 10 -10z m286 -1752 c-4 -9 -9 -15 -11 -12 -3 3
-3 13 1 22 4 9 9 15 11 12 3 -3 3 -13 -1 -22z"/>
<path d="M5511 3664 c-2 -203 -2 -204 98 -204 36 0 71 4 77 8 9 5 12 59 10
179 -1 198 8 183 -112 183 l-70 0 -3 -166z"/>
<path d="M5778 3453 c-16 -2 -28 -11 -28 -18 0 -8 -4 -16 -9 -19 -5 -4 -7 2
-4 12 3 11 -1 19 -9 19 -11 0 -13 -77 -13 -413 0 -226 3 -407 7 -401 12 19 10
-11 -3 -34 -15 -29 -3 -58 21 -52 11 3 20 9 20 13 0 4 23 3 51 -2 28 -5 54 -7
57 -4 3 3 6 206 6 451 1 362 -1 446 -12 450 -14 5 -39 5 -84 -2z m89 -735 c-3
-8 -6 -5 -6 6 -1 11 2 17 5 13 3 -3 4 -12 1 -19z"/>
<path d="M3852 3417 c-4 -7 -9 -26 -11 -43 -2 -24 4 -36 20 -48 12 -8 27 -12
32 -9 6 4 7 1 2 -7 -6 -10 -4 -12 11 -6 15 6 17 5 7 -5 -10 -10 -13 -83 -13
-295 l0 -281 -30 -38 c-32 -41 -38 -76 -16 -94 17 -15 165 -13 184 1 22 19 14
65 -15 86 -26 19 -28 26 -31 105 -5 114 2 127 76 127 87 1 137 31 176 105 28
54 31 67 31 154 0 80 -4 103 -22 137 -40 75 -69 102 -125 113 -67 15 -264 13
-276 -2z m303 -128 c35 -35 44 -126 20 -203 -10 -31 -20 -54 -23 -51 -3 3 -10
1 -17 -5 -6 -5 -36 -13 -67 -18 -48 -7 -57 -6 -67 10 -16 26 -15 270 2 287 8
8 31 11 70 9 45 -3 63 -10 82 -29z"/>
<path d="M4352 3418 c-23 -23 -14 -72 18 -100 l30 -26 0 -291 c0 -185 -4 -292
-10 -296 -6 -4 -8 -11 -4 -16 3 -5 2 -9 -3 -8 -4 1 -16 -1 -25 -5 -22 -10 -24
-68 -4 -85 17 -15 155 -13 174 2 22 17 14 62 -18 92 -30 29 -30 29 -30 141 0
138 4 144 94 144 66 0 86 11 86 44 -1 43 -24 57 -89 55 -86 -3 -91 3 -91 120
0 62 4 103 13 114 9 12 31 17 95 18 102 2 119 -9 114 -81 -4 -54 16 -82 43
-60 22 18 22 212 -1 234 -13 13 -45 16 -198 16 -128 0 -186 -4 -194 -12z"/>
<path d="M4830 3411 c-18 -34 -11 -65 20 -93 l30 -26 0 -286 0 -286 -30 -32
c-31 -32 -39 -75 -18 -96 9 -9 72 -12 224 -12 184 0 213 2 225 16 22 26 18
209 -4 232 -30 29 -51 5 -57 -67 -3 -40 -10 -65 -20 -71 -8 -5 -57 -10 -109
-10 -121 0 -120 0 -121 147 0 137 4 143 94 143 36 0 68 5 75 13 11 10 13 10 7
0 -4 -7 -3 -13 2 -13 32 0 41 75 11 90 -10 6 -52 10 -93 10 -93 0 -96 4 -96
127 0 124 1 124 130 121 l105 -3 3 -50 c3 -64 19 -95 48 -95 42 0 55 64 38
180 -11 80 -11 80 -231 80 -152 0 -193 -3 -187 -12 6 -10 4 -10 -7 0 -18 17
-27 15 -39 -7z"/>
<path d="M5531 2534 c-19 -22 -22 -351 -3 -359 27 -10 121 -17 145 -11 l25 6
1 150 c1 95 -3 158 -10 171 -7 13 -7 19 -1 15 19 -12 25 17 7 31 -27 19 -146
17 -164 -3z"/>
<path d="M5348 2148 c-12 -10 -16 -29 -15 -83 l2 -70 65 -2 c109 -4 106 -6
102 87 l-4 80 -67 0 c-39 0 -74 -5 -83 -12z m12 -52 c0 -3 -4 -8 -10 -11 -5
-3 -10 -1 -10 4 0 6 5 11 10 11 6 0 10 -2 10 -4z"/>
<path d="M3677 1934 c2 -23 0 -58 -6 -79 -6 -22 -8 -41 -5 -44 10 -10 333 -8
327 2 -3 5 7 2 22 -6 27 -14 28 -16 27 -94 -2 -102 6 -108 128 -95 52 5 93 5
106 0 13 -6 34 -6 55 0 19 5 50 7 69 5 63 -7 528 -8 535 -1 8 8 8 143 0 168
-4 13 -26 14 -177 7 -190 -9 -703 -6 -713 4 -6 7 -11 29 -24 112 -5 26 -10 50
-13 52 -3 3 -79 6 -171 8 l-165 2 5 -41z m337 -84 c-5 -5 -10 3 -11 18 -1 22
0 24 9 8 6 -10 6 -22 2 -26z m-271 -37 c-7 -2 -19 -2 -25 0 -7 3 -2 5 12 5 14
0 19 -2 13 -5z m44 1 c-3 -3 -12 -4 -19 -1 -8 3 -5 6 6 6 11 1 17 -2 13 -5z
m286 -49 c-3 -9 -8 -14 -10 -11 -3 3 -2 9 2 15 9 16 15 13 8 -4z m7 -109 c0
-2 -7 -7 -16 -10 -8 -3 -12 -2 -9 4 6 10 25 14 25 6z m837 -18 c-3 -8 -6 -5
-6 6 -1 11 2 17 5 13 3 -3 4 -12 1 -19z m-214 -15 c-13 -2 -33 -2 -45 0 -13 2
-3 4 22 4 25 0 35 -2 23 -4z"/>
<path d="M4974 1963 c-14 -10 -13 -12 8 -16 23 -4 23 -4 1 -6 -20 -1 -23 -7
-24 -43 -3 -66 -4 -72 -11 -83 -4 -7 54 -8 171 -5 140 4 181 8 192 20 18 18
22 119 5 135 -16 15 -321 13 -342 -2z m339 -54 c-7 -25 -10 -24 -15 5 -3 16
-1 23 7 19 7 -2 11 -13 8 -24z"/>
</g>
</svg>
